<?xml version="1.0" encoding="utf-8"?>
<!-- Generator: Adobe Illustrator 18.1.0, SVG Export Plug-In . SVG Version: 6.00 Build 0)  -->
<svg version="1.1" id="Layer_1" xmlns="http://www.w3.org/2000/svg" xmlns:xlink="http://www.w3.org/1999/xlink" x="0px" y="0px"
	 viewBox="0 0 624 293" enable-background="new 0 0 624 293" xml:space="preserve">
<g>
	<path fill="#EC008C" d="M621,53.5c-0.2-0.2-2.4-2-8.5-3.9c-0.5-0.1-0.9-0.1-1.3,0.2c-0.4,0.3-0.6,0.7-0.6,1.2v9.8l-7-2.3v-9.8
		c0-0.7-0.5-1.4-1.2-1.5c-7.4-1.3-16.2-2-26.2-2.1c-0.4,0-0.8,0.1-1.1,0.4c-0.3,0.3-0.4,0.7-0.4,1.1v9.8h-7v-9.8
		c0-0.4-0.2-0.8-0.4-1.1c-0.3-0.3-0.7-0.4-1.1-0.4c-11,0.2-20.8,0.9-29.2,2c-0.8,0.1-1.3,0.8-1.3,1.5l0.3,10.1l-7.3,1.4v-9.8
		c0-0.5-0.2-0.9-0.6-1.2s-0.8-0.4-1.3-0.3c-10.1,2.2-13.4,4.5-13.6,4.6c-0.4,0.3-0.6,0.7-0.6,1.2v74.8h-18.8c-0.8,0-1.5,0.7-1.5,1.5
		v14.2h-5.7V131c0-0.8-0.7-1.5-1.5-1.5h-18.3c-0.8,0-1.5,0.7-1.5,1.5v14.2h-5.7V131c0-0.8-0.7-1.5-1.5-1.5h-13.3
		c-0.8,0-1.5,0.7-1.5,1.5v14.2h-5.7V131c0-0.4-0.2-0.8-0.4-1.1c-0.3-0.3-0.7-0.4-1.1-0.4c0,0,0,0,0,0l-8.5,0c-0.1,0-0.3,0-0.4,0.1
		V93.3l5.1-11.7c0.1-0.2,0.1-0.4,0.1-0.6L432,43.5c0-0.8-0.7-1.5-1.5-1.5c0,0,0,0,0,0l-8.5,0c-0.8,0-1.5,0.7-1.5,1.5v16h-8V43.6
		c0-0.4-0.2-0.8-0.4-1.1c-0.3-0.3-0.7-0.4-1.1-0.4c0,0,0,0,0,0l-20,0.1c-0.8,0-1.5,0.7-1.5,1.5v15.8h-8V43.8c0-0.4-0.2-0.8-0.4-1.1
		c-0.3-0.3-0.7-0.4-1.1-0.4c0,0,0,0,0,0l-21,0.1c-0.8,0-1.5,0.7-1.5,1.5v15.6h-8V44c0-0.4-0.2-0.8-0.4-1.1c-0.3-0.3-0.7-0.4-1.1-0.4
		c0,0,0,0,0,0l-13,0c-0.8,0-1.5,0.7-1.5,1.5l0,10h-14.4c-0.8,0-1.5,0.7-1.5,1.5V72h-6.5V55.5c0-0.8-0.7-1.5-1.5-1.5h-6.1V31.8
		c1.2,0.3,3.1,0.6,5.5,0.6c2.5,0,5.4-0.4,8.3-1.7c1.3-0.6,8.4-4.3,14.7-7.6c2-1,3.8-2,5.2-2.7c5.2-2.7,10.1,3.3,10.3,3.6
		c0.5,0.6,1.4,0.8,2.1,0.3c0.6-0.5,0.8-1.4,0.3-2.1c-0.3-0.4-6.8-8.9-14.4-8.3c-2,0.2-3.9,0.8-6,1.4c-4.5,1.4-9.1,2.9-14.7,0.3
		C309,13,304.1,4.8,304.1,4.7c-0.1-0.2-0.4-0.4-0.6-0.6c-0.1-0.8-0.7-1.3-1.5-1.3c-0.8,0-1.5,0.7-1.5,1.5V54h-5.4
		c-0.8,0-1.5,0.7-1.5,1.5V72h-6.5V55.5c0-0.8-0.7-1.5-1.5-1.5h-13.6L272,43.5c0-0.8-0.7-1.5-1.5-1.5c0,0,0,0,0,0l-8.5,0
		c-0.8,0-1.5,0.7-1.5,1.5v16h-8V43.6c0-0.4-0.2-0.8-0.4-1.1c-0.3-0.3-0.7-0.4-1.1-0.4l-20,0.1c-0.8,0-1.5,0.7-1.5,1.5v15.8h-8V43.8
		c0-0.4-0.2-0.8-0.4-1.1c-0.3-0.3-0.6-0.4-1.1-0.4l-21,0.1c-0.8,0-1.5,0.7-1.5,1.5v15.6h-8V44c0-0.4-0.2-0.8-0.4-1.1
		c-0.3-0.3-0.7-0.4-1.1-0.4c0,0,0,0,0,0l-13,0c-0.8,0-1.5,0.7-1.5,1.5l0.1,36.3c0,0.2,0,0.3,0.1,0.5l4.3,12.5v36.5l-11.2-0.2
		c-0.4,0-0.8,0.1-1.1,0.4c-0.3,0.3-0.4,0.7-0.4,1.1v14.2h-5.7V131c0-0.8-0.7-1.5-1.5-1.5h-18.3c-0.8,0-1.5,0.7-1.5,1.5v14.2h-5.7
		V131c0-0.8-0.7-1.5-1.5-1.5h-19.5V83.9c0.4-0.6,0.4-1.3,0-1.9V54.7c0-0.4-0.2-0.9-0.5-1.1c-0.2-0.2-2.4-2-8.5-3.9
		c-0.5-0.1-1-0.1-1.3,0.2c-0.4,0.3-0.6,0.7-0.6,1.2v9.8l-7-2.3v-9.8c0-0.7-0.5-1.4-1.2-1.5c-7.4-1.3-16.2-2-26.2-2.1
		c-0.4,0-0.8,0.1-1.1,0.4s-0.4,0.7-0.4,1.1v9.8h-7v-9.8c0-0.4-0.2-0.8-0.4-1.1c-0.3-0.3-0.7-0.4-1.1-0.4c-11,0.2-20.8,0.9-29.2,2
		c-0.8,0.1-1.3,0.8-1.3,1.5l0.3,10.1l-7.3,1.4v-9.8c0-0.5-0.2-0.9-0.6-1.2c-0.4-0.3-0.8-0.4-1.3-0.3C6.5,51,3.3,53.4,3.1,53.5
		c-0.4,0.3-0.6,0.7-0.6,1.2V298c0,0.8,0.7,1.5,1.5,1.5h105.7c0.3,0.2,0.6,0.3,0.9,0.3h68.8h86.2h8.4c0.2,0.1,0.4,0.2,0.7,0.2
		s0.5-0.1,0.7-0.2h55.2c0.2,0.1,0.4,0.2,0.7,0.2s0.5-0.1,0.7-0.2h7.6h86.2H514c0.4,0,0.7-0.1,0.9-0.3H620c0.8,0,1.5-0.7,1.5-1.5
		V54.7C621.5,54.2,621.3,53.8,621,53.5z M313.5,18.4c6.6,3,12.3,1.2,16.8-0.2c1.9-0.6,3.7-1.2,5.4-1.3c0.7-0.1,1.3,0,2,0.1
		c-0.6,0.2-1.3,0.4-1.9,0.7c-1.4,0.7-3.2,1.7-5.2,2.7c-5.6,3-13.3,7-14.5,7.5c-5.3,2.4-11.1,1.1-12.5,0.7V9.3
		C305.6,12.2,309.3,16.4,313.5,18.4z M525.5,52.2V62c0,0.4,0.2,0.9,0.5,1.2c0.3,0.3,0.8,0.4,1.2,0.3l10.3-2c0.7-0.1,1.2-0.8,1.2-1.5
		l-0.3-10c7.5-0.9,16.2-1.5,26-1.7V58c0,0.8,0.7,1.5,1.5,1.5h10c0.8,0,1.5-0.7,1.5-1.5v-9.8c8.7,0.2,16.4,0.8,23,1.9v9.6
		c0,0.6,0.4,1.2,1,1.4l10,3.3c0.5,0.2,1,0.1,1.4-0.2c0.4-0.3,0.6-0.7,0.6-1.2v-9.8c2.7,1,4.3,1.8,5,2.3v24.7
		c-3.4-2.2-16.4-8.5-51.5-8c-32.4,0.5-46.6,5.9-51.5,8.4v-25C516.7,54.9,519.7,53.6,525.5,52.2z M427.5,132.5
		C427.5,132.5,427.5,132.5,427.5,132.5l7,0v14.2c0,0.8,0.7,1.5,1.5,1.5h8.7c0.8,0,1.5-0.7,1.5-1.5v-14.2h10.3v14.2
		c0,0.8,0.7,1.5,1.5,1.5h8.7c0.8,0,1.5-0.7,1.5-1.5v-14.2h15.3v14.2c0,0.8,0.7,1.5,1.5,1.5h8.7c0.8,0,1.5-0.7,1.5-1.5v-14.2h17.3v47
		h-28.4c-0.8,0-1.5,0.7-1.5,1.5s0.7,1.5,1.5,1.5h28.4v9H488c-0.8,0-1.5,0.7-1.5,1.5s0.7,1.5,1.5,1.5h24.5v10c0,0-0.1,0-0.1,0h-67.2
		c-0.8,0-1.5,0.7-1.5,1.5s0.7,1.5,1.5,1.5h67.2c0.1,0,0.1,0,0.1,0v9c-0.1,0-0.1,0-0.2,0h-63.1c-0.8,0-1.5,0.7-1.5,1.5
		s0.7,1.5,1.5,1.5h63.1c0.1,0,0.1,0,0.2,0v9h-74c-0.8,0-1.5,0.7-1.5,1.5s0.7,1.5,1.5,1.5h74v6h-53.2c-0.8,0-1.5,0.7-1.5,1.5
		s0.7,1.5,1.5,1.5h53.2v9.5H452c-0.8,0-1.5,0.7-1.5,1.5s0.7,1.5,1.5,1.5h60.5v9H460c-0.8,0-1.5,0.7-1.5,1.5s0.7,1.5,1.5,1.5h52.5v10
		H446c-0.8,0-1.5,0.7-1.5,1.5s0.7,1.5,1.5,1.5h66.5v9h-44c-0.8,0-1.5,0.7-1.5,1.5s0.7,1.5,1.5,1.5h44v6.8h-85.4V132.4
		C427.2,132.5,427.4,132.5,427.5,132.5z M346.5,45.5V61c0,0.8,0.7,1.5,1.5,1.5h11c0.8,0,1.5-0.7,1.5-1.5V45.4l18-0.1V61
		c0,0.8,0.7,1.5,1.5,1.5h11c0.8,0,1.5-0.7,1.5-1.5V45.2l17-0.1V61c0,0.8,0.7,1.5,1.5,1.5h11c0.8,0,1.5-0.7,1.5-1.5V45l5.5,0
		l0.3,34.7c-0.3-0.2-0.6-0.3-0.9-0.3h-44c-0.8,0-1.5,0.7-1.5,1.5s0.7,1.5,1.5,1.5h44c0.1,0,0.1,0,0.2,0l-4,9.1h-84.1l-3.1-9.1h20.8
		c0.8,0,1.5-0.7,1.5-1.5s-0.7-1.5-1.5-1.5h-21.6l-0.1-33.9L346.5,45.5z M279.5,110.9c0.2,0.1,0.3,0.1,0.5,0.1h30.5
		c0.8,0,1.5-0.7,1.5-1.5s-0.7-1.5-1.5-1.5h-28.9c4.9-5.8,12.6-9.5,21.3-9.5c14,0,25.5,9.7,26.6,22h-50.2c-0.8,0-1.5,0.7-1.5,1.5
		s0.7,1.5,1.5,1.5h50.3v21H281c-0.8,0-1.5,0.7-1.5,1.5s0.7,1.5,1.5,1.5h48.7v17.4c-0.3-0.2-0.6-0.4-1-0.4H290
		c-0.8,0-1.5,0.7-1.5,1.5s0.7,1.5,1.5,1.5h38.7c0.4,0,0.7-0.2,1-0.4v21.5c-0.2-0.1-0.4-0.1-0.6-0.1h-49.6c-0.8,0-1.5,0.7-1.5,1.5
		s0.7,1.5,1.5,1.5h49.6c0.2,0,0.4,0,0.6-0.1v29.3c-0.2-0.1-0.4-0.2-0.7-0.2h-14.5c-0.8,0-1.5,0.7-1.5,1.5s0.7,1.5,1.5,1.5H329
		c0.2,0,0.5-0.1,0.7-0.2V269h-5.2v-25c0-12.7-13.7-22.5-21.1-23c0,0-0.1,0-0.1,0c0,0-0.1,0-0.1,0c0,0,0,0,0,0c0,0-0.1,0-0.1,0
		c-4.2,0.1-9.4,2.6-13.5,6.7c-4.8,4.7-7.5,10.5-7.5,16.3v1h-5.8v-34.5H323c0.8,0,1.5-0.7,1.5-1.5s-0.7-1.5-1.5-1.5h-46.8v-28h47.3
		c0.8,0,1.5-0.7,1.5-1.5s-0.7-1.5-1.5-1.5h-47.3v-20h46.3c0.8,0,1.5-0.7,1.5-1.5s-0.7-1.5-1.5-1.5h-46.3v-18h47.3
		c0.8,0,1.5-0.7,1.5-1.5s-0.7-1.5-1.5-1.5h-47.3v-10C276.2,118.3,277.4,114.3,279.5,110.9z M276.2,248h5.8v48.8h-5.8V248z
		 M284.9,247c0.1-0.2,0.1-0.3,0.1-0.5s0-0.3-0.1-0.5v-2c0-10,9.6-18.6,16.6-19.9v72.7h-16.6V247z M304.5,224.2
		c6.5,1.5,16.9,9.7,16.9,19.8v52.8h-16.9V224.2z M324.4,272h5.2v24.8h-5.2V272z M302.9,95.5c-16.4,0-29.8,12.1-29.8,27v123.3
		c-0.1,0.2-0.2,0.4-0.2,0.7s0.1,0.5,0.2,0.7v49.7h-6.1V93.3l1.2-2.8H337l0.9,2.7v203.6h-5.3V122.5
		C332.7,107.6,319.3,95.5,302.9,95.5z M284.1,57v16.5c0,0.8,0.7,1.5,1.5,1.5h9.5c0.8,0,1.5-0.7,1.5-1.5V57h11.5v16.5
		c0,0.8,0.7,1.5,1.5,1.5h9.5c0.8,0,1.5-0.7,1.5-1.5V57h12.9l0,23.3c0,0.2,0,0.3,0.1,0.5l0.1,0.2c0,0.3,0.1,0.6,0.3,0.8l2,5.7h-66.3
		l2.6-5.9c0.1-0.2,0.1-0.4,0.1-0.6l-0.2-24H284.1z M176.5,45.5l10,0V61c0,0.8,0.7,1.5,1.5,1.5h11c0.8,0,1.5-0.7,1.5-1.5V45.4l18-0.1
		V61c0,0.8,0.7,1.5,1.5,1.5h11c0.8,0,1.5-0.7,1.5-1.5V45.2l17-0.1V61c0,0.8,0.7,1.5,1.5,1.5h11c0.8,0,1.5-0.7,1.5-1.5V45l5.5,0
		l0.3,34.4H203c-0.8,0-1.5,0.7-1.5,1.5s0.7,1.5,1.5,1.5h65.6l-4,9.1h-84.1L176.6,80L176.5,45.5z M15.5,52.2V62
		c0,0.4,0.2,0.9,0.5,1.2c0.3,0.3,0.8,0.4,1.2,0.3l10.3-2c0.7-0.1,1.2-0.8,1.2-1.5l-0.3-10c7.5-0.9,16.2-1.5,26-1.7V58
		c0,0.8,0.7,1.5,1.5,1.5h10c0.8,0,1.5-0.7,1.5-1.5v-9.8c8.7,0.2,16.4,0.8,23,1.9v9.6c0,0.6,0.4,1.2,1,1.4l10,3.3
		c0.5,0.2,1,0.1,1.4-0.2c0.4-0.3,0.6-0.7,0.6-1.2v-9.8c2.7,1,4.3,1.8,5,2.3v24.6c-5.6-2.9-20.3-8.4-51.5-7.9
		c-32.4,0.5-46.6,5.9-51.5,8.4v-25C6.7,54.9,9.7,53.6,15.5,52.2z M5.5,296.5v-61.3H53c0.8,0,1.5-0.7,1.5-1.5s-0.7-1.5-1.5-1.5H5.5
		V84c1.9-1.2,14.6-8.2,51.5-8.8c34.2-0.6,48.1,6.3,51.5,8.4v29.2H89c-0.8,0-1.5,0.7-1.5,1.5s0.7,1.5,1.5,1.5h19.5v16.5H64
		c-0.8,0-1.5,0.7-1.5,1.5s0.7,1.5,1.5,1.5h44.5v9h-62c-0.8,0-1.5,0.7-1.5,1.5s0.7,1.5,1.5,1.5h62v6.5H62.4c-0.8,0-1.5,0.7-1.5,1.5
		s0.7,1.5,1.5,1.5h46.1v61h-16c-0.8,0-1.5,0.7-1.5,1.5s0.7,1.5,1.5,1.5h16v24.5H40c-0.8,0-1.5,0.7-1.5,1.5s0.7,1.5,1.5,1.5h68.5v10
		H58c-0.8,0-1.5,0.7-1.5,1.5s0.7,1.5,1.5,1.5h50.5v12.5H74c-0.8,0-1.5,0.7-1.5,1.5s0.7,1.5,1.5,1.5h34.5v19.8H5.5z M112.2,132.5
		h17.3v14.2c0,0.8,0.7,1.5,1.5,1.5h8.7c0.8,0,1.5-0.7,1.5-1.5v-14.2h15.3v14.2c0,0.8,0.7,1.5,1.5,1.5h8.7c0.8,0,1.5-0.7,1.5-1.5
		v-14.1l9.8,0.2v49.8h-51.7c-0.8,0-1.5,0.7-1.5,1.5s0.7,1.5,1.5,1.5h51.7v9h-48.5c-0.8,0-1.5,0.7-1.5,1.5s0.7,1.5,1.5,1.5h48.5v9
		H121c-0.8,0-1.5,0.7-1.5,1.5s0.7,1.5,1.5,1.5h56.9v6h-41.6c-0.8,0-1.5,0.7-1.5,1.5s0.7,1.5,1.5,1.5h41.6v9.5h-47.3
		c-0.8,0-1.5,0.7-1.5,1.5s0.7,1.5,1.5,1.5h47.3v9h-41c-0.8,0-1.5,0.7-1.5,1.5s0.7,1.5,1.5,1.5h41v9.1c-0.1-0.1-0.3-0.1-0.5-0.1
		h-32.7c-0.8,0-1.5,0.7-1.5,1.5s0.7,1.5,1.5,1.5h32.7c0.2,0,0.3,0,0.5-0.1v9.2c-0.2-0.1-0.3-0.1-0.5-0.1h-30.7
		c-0.8,0-1.5,0.7-1.5,1.5s0.7,1.5,1.5,1.5h30.7c0.2,0,0.3,0,0.5-0.1v9.1c-0.1,0-0.1,0-0.2,0h-36.2c-0.8,0-1.5,0.7-1.5,1.5
		s0.7,1.5,1.5,1.5h36.2c0.1,0,0.1,0,0.2,0v6h-26.3c-0.8,0-1.5,0.7-1.5,1.5s0.7,1.5,1.5,1.5h26.3v8.8h-65.8V132.5z M180.9,296.8
		v-51.5h63.8c0.8,0,1.5-0.7,1.5-1.5s-0.7-1.5-1.5-1.5h-63.8v-33.8c0.1-0.2,0.1-0.4,0.1-0.6s0-0.4-0.1-0.6v-75.7
		c0-0.1,0.1-0.3,0.1-0.4c0-0.2,0-0.3-0.1-0.5V94.5h83.2v27.4c0,0-0.1,0-0.1,0h-34.9c-0.8,0-1.5,0.7-1.5,1.5s0.7,1.5,1.5,1.5H264
		c0,0,0.1,0,0.1,0v13.2c0,0-0.1,0-0.1,0h-66.9c-0.8,0-1.5,0.7-1.5,1.5s0.7,1.5,1.5,1.5H264c0,0,0.1,0,0.1,0v9.9h-40.8
		c-0.8,0-1.5,0.7-1.5,1.5s0.7,1.5,1.5,1.5h40.8v28.9H201c-0.8,0-1.5,0.7-1.5,1.5s0.7,1.5,1.5,1.5h63.1v13.2h-37.8
		c-0.8,0-1.5,0.7-1.5,1.5s0.7,1.5,1.5,1.5h37.8v9.9h-22.6c-0.8,0-1.5,0.7-1.5,1.5s0.7,1.5,1.5,1.5h22.6v81.9H180.9z M340.9,296.8
		v-143h34.6c0.8,0,1.5-0.7,1.5-1.5s-0.7-1.5-1.5-1.5h-34.6V94.5h83.2v64.8h-27.2c-0.8,0-1.5,0.7-1.5,1.5s0.7,1.5,1.5,1.5h27.2v8.2
		h-40.5c-0.8,0-1.5,0.7-1.5,1.5s0.7,1.5,1.5,1.5h40.5v30.5h-66c-0.8,0-1.5,0.7-1.5,1.5s0.7,1.5,1.5,1.5h66v8.2h-45.8
		c-0.8,0-1.5,0.7-1.5,1.5s0.7,1.5,1.5,1.5h45.8v19.4h-47.5c-0.8,0-1.5,0.7-1.5,1.5s0.7,1.5,1.5,1.5h47.5v8.2H395
		c-0.8,0-1.5,0.7-1.5,1.5s0.7,1.5,1.5,1.5h29.1v8.2h-39.8c-0.8,0-1.5,0.7-1.5,1.5s0.7,1.5,1.5,1.5h39.8v33.9H340.9z M515.5,296.5
		V154.2H563c0.8,0,1.5-0.7,1.5-1.5s-0.7-1.5-1.5-1.5h-47.5V131V84c1.9-1.2,14.6-8.2,51.5-8.8c39.9-0.7,50.4,7.9,50.5,7.9
		c0.3,0.3,0.6,0.4,1,0.4V160c0,0,0,0,0,0H599c-0.8,0-1.5,0.7-1.5,1.5s0.7,1.5,1.5,1.5h19.5c0,0,0,0,0,0v8.2c0,0,0,0,0,0h-28.9
		c-0.8,0-1.5,0.7-1.5,1.5s0.7,1.5,1.5,1.5h28.9c0,0,0,0,0,0v19.4h-24.3c-0.8,0-1.5,0.7-1.5,1.5s0.7,1.5,1.5,1.5h24.3v8.2h-47.1
		c-0.8,0-1.5,0.7-1.5,1.5s0.7,1.5,1.5,1.5h47.1v8.2h-57c-0.8,0-1.5,0.7-1.5,1.5s0.7,1.5,1.5,1.5h57v19.4h-48c-0.8,0-1.5,0.7-1.5,1.5
		s0.7,1.5,1.5,1.5h48v8.2h-60.6c-0.8,0-1.5,0.7-1.5,1.5s0.7,1.5,1.5,1.5h60.6v8.2h-40.2c-0.8,0-1.5,0.7-1.5,1.5s0.7,1.5,1.5,1.5
		h40.2v11.2h-78c-0.8,0-1.5,0.7-1.5,1.5s0.7,1.5,1.5,1.5h78V288H524c-0.8,0-1.5,0.7-1.5,1.5s0.7,1.5,1.5,1.5h94.5v5.5H515.5z"/>
	<path fill="#EC008C" d="M32.5,102.5c-5.2,0-9.5,4.3-9.5,9.5v22c0,0.8,0.7,1.5,1.5,1.5h16c0.8,0,1.5-0.7,1.5-1.5v-22
		C42,106.8,37.7,102.5,32.5,102.5z M39,132.5H26V112c0-3.6,2.9-6.5,6.5-6.5s6.5,2.9,6.5,6.5V132.5z"/>
	<path fill="#EC008C" d="M66.5,212h16c0.8,0,1.5-0.7,1.5-1.5v-22c0-5.2-4.3-9.5-9.5-9.5s-9.5,4.3-9.5,9.5v22
		C65,211.3,65.7,212,66.5,212z M68,188.5c0-3.6,2.9-6.5,6.5-6.5s6.5,2.9,6.5,6.5V209H68V188.5z"/>
	<path fill="#EC008C" d="M205.4,132v-14.3c0-3.7-3-6.7-6.7-6.7s-6.7,3-6.7,6.7V132c0,0.8,0.7,1.5,1.5,1.5h10.4
		C204.7,133.5,205.4,132.8,205.4,132z M202.4,130.5H195v-12.8c0-2,1.7-3.7,3.7-3.7c2,0,3.7,1.7,3.7,3.7V130.5z"/>
	<path fill="#EC008C" d="M399.5,143.5h10.4c0.8,0,1.5-0.7,1.5-1.5v-14.3c0-3.7-3-6.7-6.7-6.7s-6.7,3-6.7,6.7V142
		C398,142.8,398.7,143.5,399.5,143.5z M401,127.7c0-2,1.7-3.7,3.7-3.7s3.7,1.7,3.7,3.7v12.8H401V127.7z"/>
	<path fill="#EC008C" d="M584,132.5h16c0.8,0,1.5-0.7,1.5-1.5v-22c0-5.2-4.3-9.5-9.5-9.5s-9.5,4.3-9.5,9.5v22
		C582.5,131.8,583.2,132.5,584,132.5z M585.5,109c0-3.6,2.9-6.5,6.5-6.5s6.5,2.9,6.5,6.5v20.5h-13V109z"/>
	<path fill="#EC008C" d="M535.5,212h16c0.8,0,1.5-0.7,1.5-1.5v-22c0-5.2-4.3-9.5-9.5-9.5s-9.5,4.3-9.5,9.5v22
		C534,211.3,534.7,212,535.5,212z M537,188.5c0-3.6,2.9-6.5,6.5-6.5s6.5,2.9,6.5,6.5V209h-13V188.5z"/>
</g>
</svg>
